<svg width="22.500000" height="20.500244" viewBox="0 0 22.5 20.5002" fill="none" xmlns="http://www.w3.org/2000/svg" xmlns:xlink="http://www.w3.org/1999/xlink">
	<desc>
			Created with Pixso.
	</desc>
	<defs/>
	<path id="Vector (Stroke)" d="M3.91779 0.376831C4.05151 0.143921 4.29962 0.000244141 4.56818 0.000244141L17.9318 0.000244141C18.2004 0.000244141 18.4485 0.143921 18.5822 0.376831L22.4005 7.02686C22.558 7.30115 22.5264 7.64502 22.3214 7.88611L11.8214 20.2361C11.6789 20.4037 11.47 20.5002 11.25 20.5002C11.03 20.5002 10.8211 20.4037 10.6786 20.2361L0.178589 7.88611C-0.0263672 7.64502 -0.0579834 7.30115 0.0996094 7.02686L3.91779 0.376831ZM5.00238 1.50024L1.66302 7.31628L11.25 18.5924L20.837 7.31628L17.4976 1.50024L5.00238 1.50024Z" fill="#FFFFFF" fill-opacity="1.000000" fill-rule="evenodd"/>
	<path id="Vector (Stroke)" d="M4.3194 0.0427246C4.71014 -0.0947266 5.13831 0.110596 5.2757 0.501343L11.25 17.4895L17.2243 0.501343C17.3618 0.110596 17.7899 -0.0947266 18.1807 0.0427246C18.5714 0.180054 18.7768 0.608276 18.6393 0.999023L11.9575 19.999C11.8519 20.2993 11.5683 20.5002 11.25 20.5002C10.9317 20.5002 10.6481 20.2993 10.5425 19.999L3.86066 0.999023C3.72327 0.608276 3.92865 0.180054 4.3194 0.0427246Z" fill="#FFFFFF" fill-opacity="1.000000" fill-rule="evenodd"/>
	<path id="Vector (Stroke)" d="M0 7.40027C0 6.98608 0.335815 6.65027 0.75 6.65027L21.75 6.65027C22.1642 6.65027 22.5 6.98608 22.5 7.40027C22.5 7.81445 22.1642 8.15027 21.75 8.15027L0.75 8.15027C0.335815 8.15027 0 7.81445 0 7.40027Z" fill="#FFFFFF" fill-opacity="1.000000" fill-rule="evenodd"/>
	<path id="Vector (Stroke)" d="M11.25 0.000244141C11.5046 0.000244141 11.7419 0.129395 11.88 0.343262L16.1755 6.99329C16.4002 7.34119 16.3004 7.80554 15.9524 8.03027C15.6045 8.255 15.1402 8.15515 14.9155 7.80713L11.25 2.13257L7.58453 7.80713C7.3598 8.15515 6.89557 8.255 6.54761 8.03027C6.19971 7.80554 6.09979 7.34119 6.32458 6.99329L10.62 0.343262C10.7582 0.129395 10.9954 0.000244141 11.25 0.000244141Z" fill="#FFFFFF" fill-opacity="1.000000" fill-rule="evenodd"/>
</svg>
