<svg width="24" height="24" viewBox="0 0 24 24" fill="none" xmlns="http://www.w3.org/2000/svg">
<path fill-rule="evenodd" clip-rule="evenodd" d="M4.66777 2.12656C4.80151 1.89363 5.0496 1.75 5.31819 1.75H18.6818C18.9504 1.75 19.1985 1.89363 19.3322 2.12656L23.1504 8.77656C23.308 9.05096 23.2764 9.39473 23.0714 9.6358L12.5714 21.9858C12.4289 22.1534 12.22 22.25 12 22.25C11.78 22.25 11.5711 22.1534 11.4286 21.9858L0.928609 9.6358C0.723651 9.39473 0.692037 9.05096 0.849592 8.77656L4.66777 2.12656ZM5.7524 3.25L2.41305 9.06604L12 20.3421L21.587 9.06604L18.2476 3.25H5.7524Z" fill="#502B6B"/>
<path fill-rule="evenodd" clip-rule="evenodd" d="M5.06926 1.79244C5.46001 1.65502 5.88818 1.86039 6.0256 2.25114L11.9999 19.2393L17.9742 2.25114C18.1116 1.86039 18.5398 1.65502 18.9305 1.79244C19.3213 1.92986 19.5267 2.35802 19.3892 2.74878L12.7074 21.7488C12.6018 22.049 12.3182 22.25 11.9999 22.25C11.6816 22.25 11.398 22.049 11.2924 21.7488L4.61055 2.74878C4.47313 2.35802 4.6785 1.92986 5.06926 1.79244Z" fill="#502B6B"/>
<path fill-rule="evenodd" clip-rule="evenodd" d="M0.75 9.1499C0.75 8.73569 1.08579 8.3999 1.5 8.3999H22.5C22.9142 8.3999 23.25 8.73569 23.25 9.1499C23.25 9.56412 22.9142 9.8999 22.5 9.8999H1.5C1.08579 9.8999 0.75 9.56412 0.75 9.1499Z" fill="#502B6B"/>
<path fill-rule="evenodd" clip-rule="evenodd" d="M11.9999 1.75C12.2545 1.75 12.4917 1.87918 12.6299 2.09306L16.9253 8.74306C17.1501 9.091 17.0502 9.55525 16.7023 9.78C16.3543 10.0047 15.8901 9.90488 15.6653 9.55694L11.9999 3.88227L8.33444 9.55694C8.10969 9.90488 7.64544 10.0047 7.2975 9.78C6.94956 9.55525 6.84969 9.091 7.07443 8.74306L11.3699 2.09306C11.508 1.87918 11.7453 1.75 11.9999 1.75Z" fill="#502B6B"/>
</svg>
