<svg width="531" height="181" viewBox="0 0 531 181" fill="none" xmlns="http://www.w3.org/2000/svg">
<path d="M435.347 95.2858C435.347 92.1408 435.347 89.2799 435.347 86.4189C435.347 63.1628 435.347 39.9172 435.347 16.6611C435.347 11.9804 438.29 9.25613 442.984 8.99317C446.053 8.82487 448.131 9.91878 450.262 12.033C459.818 21.5416 469.543 30.8714 479.237 40.2958C479.458 40.1065 479.722 39.8961 479.964 39.6647C489.837 29.9983 499.741 20.353 509.561 10.634C510.743 9.46649 511.892 8.97213 513.538 9.03524C516.576 9.15094 519.613 9.0668 522.841 9.0668V95.2964H506.408C506.408 94.1919 506.408 93.2032 506.408 92.225C506.408 75.5429 506.429 58.8607 506.365 42.1786C506.365 41.0111 505.817 39.8541 505.532 38.6865C505.057 38.4867 504.593 38.2973 504.119 38.0975C503.665 38.9179 503.37 39.8961 502.726 40.5272C496.598 46.5437 490.438 52.5182 484.226 58.4505C483.635 59.0185 482.686 59.3446 481.852 59.4918C477.275 60.2807 473.804 58.7976 470.619 55.1898C465.894 49.8149 460.567 44.9555 455.441 39.9487C454.724 39.244 453.637 38.9179 452.72 38.413C452.466 39.4123 451.992 40.4115 451.992 41.4108C451.95 58.4295 451.96 75.4482 451.96 92.4669C451.96 93.3715 451.96 94.2761 451.96 95.3069H435.337L435.347 95.2858Z" fill="white"/>
<path d="M163.764 68.3482V9.18241C167.614 9.18241 171.422 8.82479 175.124 9.2876C178.763 9.73989 180.388 12.359 180.388 16.3349C180.388 33.2695 180.388 50.2145 180.388 67.1491C180.388 75.5743 180.388 83.9995 180.388 92.4352V95.4225C175.019 95.4225 169.882 95.5592 164.766 95.3068C163.785 95.2542 162.741 93.8026 161.95 92.8139C155.115 84.2309 148.333 75.6269 141.551 67.0124C135.539 59.376 129.558 51.7187 123.535 44.1034C121.742 41.8314 119.833 39.6646 117.586 36.9824V95.2331H101.448V9.06671C106.342 9.06671 111.142 8.91945 115.92 9.18241C116.911 9.23501 117.945 10.6865 118.736 11.6647C125.065 19.5746 131.372 27.5159 137.638 35.4783C144.167 43.7668 150.622 52.0973 157.151 60.3753C159.155 62.9207 161.286 65.361 163.754 68.3272L163.764 68.3482Z" fill="white"/>
<path d="M384.602 94.9176C360.859 94.8755 341.557 75.9004 342.032 51.7713C342.496 28.0103 360.596 9.71886 384.961 9.70834C408.482 9.69783 428.059 28.0419 427.553 53.6225C427.11 76.1318 408.672 95.0543 384.613 94.9176H384.602ZM359.562 52.1394C359.34 59.5549 361.492 65.9395 366.45 71.2197C372.019 77.1311 379.033 79.3715 387.06 78.8666C393.399 78.4669 399.063 76.1528 403.177 71.4932C409.105 64.7825 411.183 56.7885 410.075 47.7112C408.725 36.6038 400.234 26.8428 388.632 25.4859C380.267 24.5077 373.021 26.4746 367.104 32.1966C361.524 37.603 359.288 44.5978 359.551 52.1394H359.562Z" fill="white"/>
<path d="M269.853 9.76111C257.681 21.6469 245.509 33.5431 233.253 45.513C244.992 61.9953 256.679 78.404 268.609 95.1597C267.543 95.2754 266.932 95.4016 266.32 95.4016C261.078 95.4121 255.825 95.5068 250.583 95.3385C249.433 95.2964 247.882 94.6338 247.239 93.7397C239.634 83.0741 232.177 72.3138 224.667 61.5851C223.718 60.2282 222.726 58.9029 221.65 57.4303C221.218 57.7564 220.733 58.0509 220.332 58.4296C216.724 61.827 213.159 65.2875 209.51 68.6429C208.234 69.8104 207.717 71.0411 207.738 72.7977C207.843 80.2026 207.78 87.618 207.78 95.2123H191.663V92.6353C191.663 67.0967 191.705 41.5581 191.61 16.0195C191.6 12.5274 194.005 9.09846 198.456 9.05638C201.251 9.03535 204.036 9.05638 206.831 9.07742C207.063 9.07742 207.295 9.19312 207.738 9.2983V47.5746C208.508 46.9435 208.961 46.649 209.331 46.2704C221.365 34.4582 233.422 22.6566 245.393 10.7814C246.712 9.47712 247.988 8.98275 249.813 9.00379C256.384 9.09846 262.945 9.04586 269.516 9.04586C269.621 9.27727 269.727 9.50867 269.843 9.74008L269.853 9.76111Z" fill="white"/>
<path d="M338.677 72.7448C333.425 84.5464 324.301 91.0678 312.424 93.8446C302.319 96.2113 292.31 95.4224 282.848 90.9521C273.113 86.3555 266.341 78.8875 262.217 68.9371C259.337 61.9635 258.599 54.6742 259.295 47.3535C260.202 37.8238 263.799 29.3145 270.539 22.183C276.91 15.4407 284.662 11.1913 293.649 9.72927C308.11 7.37316 321.168 10.6759 331.895 21.1733C334.163 23.3926 336.304 25.7277 338.709 28.2206C337.253 28.6203 335.713 29.062 334.174 29.4512C330.566 30.3873 327.001 31.5444 323.341 32.1124C321.695 32.3648 319.544 31.8704 318.162 30.9343C313.532 27.7788 308.595 25.3806 303.005 25.2333C296.56 25.0545 290.474 26.6112 285.422 31.029C278.218 37.3189 275.718 45.5653 276.435 54.6322C277.395 66.8545 284.378 76.0055 297.309 78.1933C305.494 79.5817 313.289 77.6779 319.533 71.5772C321.432 69.726 323.51 68.8635 326.305 69.6839C330.345 70.8725 334.479 71.7245 338.677 72.7448Z" fill="white"/>
<path d="M15.8005 79.3608C21.5912 79.3608 26.9073 79.3608 32.2234 79.3608C40.2607 79.3608 48.2981 79.445 56.3249 79.3293C60.9765 79.2661 62.7696 82.4427 63.086 85.493C63.3181 87.7439 63.1388 90.0369 63.1388 92.3089C63.1388 93.224 63.1388 94.1391 63.1388 95.233H0V9.26645H15.8005V79.3608Z" fill="white"/>
<path d="M90.0355 95.3174H74.0768V9.1299C77.547 9.1299 81.1016 8.81435 84.5613 9.21405C88.253 9.63478 90.0355 12.2959 90.0355 16.3665C90.0355 36.3304 90.0355 56.2837 90.0355 76.2476V95.3279V95.3174Z" fill="white"/>
<path d="M384.929 107.561C377.852 107.561 370.764 107.803 363.707 107.477C359.087 107.256 354.489 106.277 349.9 105.489C349.056 105.341 348.329 104.5 347.548 103.974C348.329 103.385 349.046 102.407 349.911 102.259C354.014 101.586 358.138 100.871 362.283 100.661C372.62 100.156 382.978 99.5036 393.304 99.735C402.038 99.9348 410.74 101.281 419.452 102.144C420.011 102.196 420.602 102.386 421.087 102.68C421.614 102.996 422.026 103.49 422.49 103.9C421.941 104.3 421.446 104.942 420.844 105.057C416.942 105.794 413.039 106.688 409.094 107.014C401.057 107.666 392.998 107.992 384.95 108.455C384.95 108.16 384.94 107.866 384.929 107.571V107.561Z" fill="white"/>
<path d="M427.605 7.46809C427.985 11.1074 425.127 14.7152 420.591 14.9572C416.594 15.1675 412.912 11.3494 413.007 7.36291C413.102 3.41852 416.657 -0.189276 420.57 5.47087e-05C425.085 0.22094 427.975 3.8077 427.605 7.46809Z" fill="white"/>
<path d="M41.9589 176.372C37.6976 179.254 32.3816 181 26.6014 181C11.4759 181 0 169.556 0 154.473C0 139.389 11.4759 127.945 26.6014 127.945C32.3816 127.945 37.6976 129.691 41.9589 132.573V135.455C37.8558 132.121 32.4554 130.154 26.6014 130.154C12.8471 130.154 2.42598 140.767 2.42598 154.483C2.42598 168.199 12.7628 178.812 26.6014 178.812C32.4554 178.812 37.8558 176.845 41.9589 173.511V176.393V176.372Z" fill="white"/>
<path d="M90.2992 128.692V162.803C90.2992 173.648 83.4537 181 72.5896 181C61.7254 181 54.8061 173.648 54.8061 162.803V128.692H57.0844V162.803C57.0844 172.354 63.3181 178.717 72.6634 178.717C82.0087 178.717 88.0209 172.354 88.0209 162.803V128.692H90.2992Z" fill="white"/>
<path d="M107.091 180.243V128.692H109.37V178.192H133.239V180.243H107.091Z" fill="white"/>
<path d="M133.851 130.743V128.692H166.085V130.743H151.191V180.243H148.913V130.743H133.851Z" fill="white"/>
<path d="M211.841 128.692V162.803C211.841 173.648 204.995 181 194.131 181C183.267 181 176.348 173.648 176.348 162.803V128.692H178.626V162.803C178.626 172.354 184.86 178.717 194.205 178.717C203.55 178.717 209.562 172.354 209.562 162.803V128.692H211.841Z" fill="white"/>
<path d="M228.633 128.692H241.248C250.372 128.692 256.679 134.078 256.679 142.566C256.679 150.15 251.585 154.546 244.75 155.987C250.604 158.417 257.365 166.832 259.875 180.243H257.597C254.707 165.769 246.121 156.366 238.97 156.366H230.911V180.243H228.633V128.692ZM241.248 130.743H230.911V154.315H241.248C248.621 154.315 254.243 150.15 254.243 142.639C254.243 135.129 248.621 130.743 241.248 130.743Z" fill="white"/>
<path d="M272.638 128.692H298.786V130.743H274.916V153.337H297.267V155.388H274.916V178.202H298.786V180.253H272.638V128.692Z" fill="white"/>
<path d="M373.274 176.372C369.013 179.254 363.697 181 357.916 181C342.791 181 331.315 169.556 331.315 154.473C331.315 139.389 342.791 127.945 357.916 127.945C363.697 127.945 369.013 129.691 373.274 132.573V135.455C369.171 132.121 363.77 130.154 357.916 130.154C344.162 130.154 333.741 140.767 333.741 154.483C333.741 168.199 344.078 178.812 357.916 178.812C363.77 178.812 369.171 176.845 373.274 173.511V176.393V176.372Z" fill="white"/>
<path d="M407.934 127.935C423.059 127.935 434.535 139.379 434.535 154.462C434.535 169.545 423.059 180.989 407.934 180.989C392.808 180.989 381.332 169.545 381.332 154.462C381.332 139.379 392.808 127.935 407.934 127.935ZM407.934 178.801C421.688 178.801 432.109 168.188 432.109 154.472C432.109 140.757 421.699 130.144 407.934 130.144C394.169 130.144 383.758 140.757 383.758 154.472C383.758 168.188 394.169 178.801 407.934 178.801Z" fill="white"/>
<path d="M448.131 128.692H465.314C480.439 128.692 490.396 139.379 490.396 154.462C490.396 169.545 480.439 180.232 465.314 180.232H448.131V128.681V128.692ZM450.41 178.191H465.303C479.057 178.191 487.96 168.188 487.96 154.462C487.96 140.736 479.068 130.733 465.303 130.733H450.41V178.191Z" fill="white"/>
<path d="M504.15 128.692H530.298V130.743H506.429V153.337H528.779V155.388H506.429V178.202H530.298V180.253H504.15V128.692Z" fill="white"/>
</svg>
