<svg width="18.000000" height="21.000000" viewBox="0 0 18 21" fill="none" xmlns="http://www.w3.org/2000/svg" xmlns:xlink="http://www.w3.org/1999/xlink">
	<desc>
			Created with Pixso.
	</desc>
	<defs/>
	<path id="Vector" d="M3 7L3 6C3 4.40869 3.63208 2.88257 4.75732 1.75735C5.88257 0.632141 7.40869 0 9 0C10.5913 0 12.1174 0.632141 13.2427 1.75735C14.3679 2.88257 15 4.40869 15 6L15 7L17 7C17.2653 7 17.5195 7.10535 17.7072 7.29291C17.8947 7.48044 18 7.73477 18 8L18 20C18 20.2652 17.8947 20.5196 17.7072 20.7071C17.5195 20.8947 17.2653 21 17 21L1 21C0.734741 21 0.480469 20.8947 0.292847 20.7071C0.105347 20.5196 0 20.2652 0 20L0 8C0 7.73477 0.105347 7.48044 0.292847 7.29291C0.480469 7.10535 0.734741 7 1 7L3 7ZM16 9L2 9L2 19L16 19L16 9ZM8 14.732C7.61877 14.5119 7.32068 14.1721 7.15222 13.7653C6.98376 13.3586 6.95422 12.9076 7.06812 12.4823C7.18213 12.057 7.43323 11.6813 7.78247 11.4132C8.13171 11.1452 8.55969 10.9999 9 10.9999C9.44031 10.9999 9.86829 11.1452 10.2175 11.4132C10.5668 11.6813 10.8179 12.057 10.9319 12.4823C11.0458 12.9076 11.0162 13.3586 10.8478 13.7653C10.6793 14.1721 10.3812 14.5119 10 14.732L10 17L8 17L8 14.732ZM5 7L13 7L13 6C13 4.93915 12.5786 3.92172 11.8284 3.17157C11.0782 2.42142 10.0609 2 9 2C7.93909 2 6.92175 2.42142 6.17163 3.17157C5.42139 3.92172 5 4.93915 5 6L5 7Z" fill="#502B6B" fill-opacity="1.000000" fill-rule="nonzero"/>
</svg>
