<svg width="24.000000" height="24.000000" viewBox="0 0 24 24" fill="none" xmlns="http://www.w3.org/2000/svg" xmlns:xlink="http://www.w3.org/1999/xlink">
	<desc>
			Created with Pixso.
	</desc>
	<defs>
		<clipPath id="clip20_30308">
			<rect id="Peoples/user" width="24.000000" height="24.000000" fill="white" fill-opacity="0"/>
		</clipPath>
	</defs>
	<g clip-path="url(#clip20_30308)">
		<path id="Vector (Stroke)" d="M12 2.75C10.2051 2.75 8.75 4.20508 8.75 6C8.75 7.79492 10.2051 9.25 12 9.25C13.7949 9.25 15.25 7.79492 15.25 6C15.25 4.20508 13.7949 2.75 12 2.75ZM7.25 6C7.25 3.37665 9.37659 1.25 12 1.25C14.6234 1.25 16.75 3.37665 16.75 6C16.75 8.62335 14.6234 10.75 12 10.75C9.37659 10.75 7.25 8.62335 7.25 6Z" fill="#757575" fill-opacity="1.000000" fill-rule="evenodd"/>
		<path id="Vector (Stroke)" d="M2.25 22C2.25 16.6152 6.61523 12.25 12 12.25C17.3848 12.25 21.75 16.6152 21.75 22C21.75 22.4142 21.4142 22.75 21 22.75C20.5858 22.75 20.25 22.4142 20.25 22C20.25 17.4437 16.5564 13.75 12 13.75C7.4436 13.75 3.75 17.4437 3.75 22C3.75 22.4142 3.41418 22.75 3 22.75C2.58582 22.75 2.25 22.4142 2.25 22Z" fill="#757575" fill-opacity="1.000000" fill-rule="evenodd"/>
	</g>
</svg>
