<svg width="24.000000" height="24.000000" viewBox="0 0 24 24" fill="none" xmlns="http://www.w3.org/2000/svg" xmlns:xlink="http://www.w3.org/1999/xlink">
	<desc>
			Created with Pixso.
	</desc>
	<defs>
		<clipPath id="clip20_30321">
			<rect id="remix-icons/line/buildings/store-2-line" width="24.000000" height="24.000000" fill="white" fill-opacity="0"/>
		</clipPath>
	</defs>
	<rect id="remix-icons/line/buildings/store-2-line" width="24.000000" height="24.000000" fill="#FFFFFF" fill-opacity="0"/>
	<g clip-path="url(#clip20_30321)">
		<path id="Vector" d="M21 13.242L21 20L22 20L22 22L2 22L2 20L3 20L3 13.242C2.3844 12.8311 1.87976 12.2745 1.53076 11.6218C1.18188 10.969 0.999634 10.2402 1 9.5C1 8.673 1.224 7.87601 1.63306 7.19699L4.34497 2.5C4.43274 2.34799 4.55896 2.22174 4.71106 2.13397C4.86304 2.0462 5.03552 2 5.21106 2L18.79 2C18.9656 2 19.1379 2.0462 19.29 2.13397C19.442 2.22174 19.5682 2.34799 19.656 2.5L22.358 7.18201C22.9546 8.17288 23.1464 9.35553 22.8934 10.4841C22.6405 11.6127 21.9624 12.6005 21 13.242ZM19 13.972C18.3124 14.0491 17.6163 13.9666 16.9659 13.7307C16.3154 13.4948 15.7283 13.1119 15.25 12.612C14.8302 13.0511 14.3258 13.4005 13.7672 13.6393C13.2086 13.878 12.6074 14.001 12 14.001C11.3927 14.0013 10.7916 13.8785 10.233 13.6402C9.67444 13.4018 9.16992 13.0527 8.75 12.614C8.27161 13.1138 7.68433 13.4964 7.03394 13.7321C6.38354 13.9678 5.6875 14.0503 5 13.973L5 20L19 20L19 13.973L19 13.972ZM5.78894 4L3.35596 8.21301C3.11963 8.79715 3.11243 9.44904 3.33618 10.0382C3.55981 10.6273 3.99768 11.1103 4.56213 11.3904C5.12671 11.6705 5.77612 11.7271 6.38062 11.5488C6.98499 11.3705 7.49988 10.9706 7.82202 10.429C8.15698 9.59201 9.34204 9.59201 9.67798 10.429C9.86328 10.8934 10.1836 11.2916 10.5975 11.5721C11.0115 11.8526 11.5 12.0025 12 12.0025C12.5 12.0025 12.9885 11.8526 13.4025 11.5721C13.8164 11.2916 14.1367 10.8934 14.322 10.429C14.657 9.59201 15.842 9.59201 16.178 10.429C16.3077 10.7484 16.5022 11.0376 16.7491 11.2783C16.9961 11.519 17.29 11.706 17.6128 11.8275C17.9354 11.9491 18.2797 12.0026 18.624 11.9847C18.9684 11.9668 19.3053 11.8778 19.6136 11.7234C19.9219 11.569 20.1949 11.3525 20.4155 11.0875C20.6361 10.8225 20.7996 10.5148 20.8955 10.1836C20.9915 9.85239 21.0178 9.50494 20.9729 9.16306C20.9281 8.82117 20.8131 8.49228 20.635 8.19699L18.21 4L5.79004 4L5.78894 4Z" fill="#FFFFFF" fill-opacity="1.000000" fill-rule="nonzero"/>
	</g>
</svg>
