<svg width="24" height="24" viewBox="0 0 24 24" fill="none" xmlns="http://www.w3.org/2000/svg">
<path d="M8.9 6C8.9 4.28792 10.2879 2.9 12 2.9C13.7121 2.9 15.1 4.28792 15.1 6C15.1 7.71208 13.7121 9.1 12 9.1C10.2879 9.1 8.9 7.71208 8.9 6ZM12 1.1C9.2938 1.1 7.1 3.2938 7.1 6C7.1 8.7062 9.2938 10.9 12 10.9C14.7062 10.9 16.9 8.7062 16.9 6C16.9 3.2938 14.7062 1.1 12 1.1Z" fill="#FFFFFF" stroke="#FFFFFF" stroke-width="0.3" stroke-linecap="round" stroke-linejoin="round"/>
<path d="M12 12.1C6.53239 12.1 2.1 16.5324 2.1 22C2.1 22.4971 2.50294 22.9 3 22.9C3.49706 22.9 3.9 22.4971 3.9 22C3.9 17.5265 7.52651 13.9 12 13.9C16.4735 13.9 20.1 17.5265 20.1 22C20.1 22.4971 20.5029 22.9 21 22.9C21.4971 22.9 21.9 22.4971 21.9 22C21.9 16.5324 17.4676 12.1 12 12.1Z" fill="#FFFFFF" stroke="#FFFFFF" stroke-width="0.3" stroke-linecap="round" stroke-linejoin="round"/>
</svg>
