<svg width="88" height="88" viewBox="0 0 88 88" fill="none" xmlns="http://www.w3.org/2000/svg">
<path id="Vector" d="M0.34744 87.2859C0.34744 84.1409 0.34744 81.2799 0.34744 78.4189C0.34744 55.1628 0.34744 31.9172 0.34744 8.66111C0.34744 3.98044 3.29028 1.25618 7.98403 0.99322C11.0534 0.824926 13.1313 1.91884 15.262 4.03303C24.8182 13.5416 34.5432 22.8714 44.2366 32.2959C44.4581 32.1065 44.7218 31.8962 44.9644 31.6648C54.8371 21.9984 64.7414 12.3531 74.5614 2.63408C75.7427 1.46655 76.8924 0.972183 78.5379 1.03529C81.5756 1.151 84.6134 1.06685 87.841 1.06685V87.2964H71.4076C71.4076 86.192 71.4076 85.2033 71.4076 84.225C71.4076 67.5429 71.4287 50.8608 71.3654 34.1787C71.3654 33.0111 70.8169 31.8541 70.5321 30.6866C70.0575 30.4867 69.5934 30.2974 69.1187 30.0975C68.6652 30.918 68.3698 31.8962 67.7264 32.5273C61.5982 38.5438 55.4383 44.5182 49.2257 50.4506C48.635 51.0186 47.6857 51.3446 46.8524 51.4919C42.2747 52.2808 38.8045 50.7977 35.6191 47.1899C30.8937 41.815 25.5671 36.9555 20.4409 31.9488C19.7237 31.244 18.6372 30.918 17.7196 30.4131C17.4664 31.4123 16.9918 32.4116 16.9918 33.4108C16.9496 50.4295 16.9601 67.4483 16.9601 84.467C16.9601 85.3716 16.9601 86.2761 16.9601 87.3069H0.336914L0.34744 87.2859Z" fill="white"/>
</svg>
